<svg width="32" height="48" viewBox="0 0 32 48" fill="none" xmlns="http://www.w3.org/2000/svg">
<path d="M3.38251 22.5162C2.332 22.8575 1.7571 23.9858 2.09843 25.0363L7.0427 40.2532C7.38403 41.3037 8.51234 41.8787 9.56285 41.5373L21.9266 37.5201C27.1791 35.8134 30.0536 30.1719 28.347 24.9194C28.1132 24.1999 27.8056 23.5251 27.4354 22.9006C26.3268 24.0667 24.9203 24.9813 23.2827 25.5134L10.9189 29.5306C9.86843 29.8719 8.74012 29.297 8.39879 28.2465L6.23568 21.5891L3.38251 22.5162Z" fill="#011AFF"/>
<path d="M27.4355 22.9006C26.327 24.0667 24.9205 24.9813 23.2828 25.5134L10.9191 29.5306C9.8686 29.8719 8.74029 29.297 8.39896 28.2465L6.23584 21.5891L15.7464 18.499C20.2795 17.0261 25.1024 18.9653 27.4355 22.9006Z" fill="#00A3FF"/>
<path d="M4.73895 10.5094C3.68844 10.8507 3.11354 11.979 3.45487 13.0295L6.23602 21.589L15.7466 18.4988C20.2797 17.0259 25.1026 18.9652 27.4357 22.9005C29.8827 20.3265 30.878 16.5274 29.7034 12.9125C27.9968 7.65999 22.3552 4.78548 17.1027 6.49214L4.73895 10.5094Z" fill="#6CCCFF"/>
</svg>
